:SAMPLES-PER-SECOND 30
:FRAME-RANGE 1-663
:FULLY-SPECIFIED
:DEGREES
42
root  -80.1351 37.0595 102.11 10.8465 83.1217 3.44568
RightUpLeg  -25.3539 -4.42111 -7.76184
RightLeg  -1.89576 -10.6888 0.607959
RightFoot  -7.75102 -0.35467 9.60866
RightToes  -3.4386e-010 1.2921e-014 -6.02303e-014
Spine  -8.41036 -5.18194 -4.2815
Spine1  9.61727 -5.61067 2.33386
HEad  17.2694 8.47384 2.76067
LeftShoulder1  1.6995 -2.93728 -21.0893
LeftArm  -3.04787 -2.34306 -52.1741
LeftForeArm  32.1515 1.939 -12.2606
LeftHand  -0.0335299 5.02315 2.8754
RightShoulder  0.919696 -0.736785 29.7417
RightArm  -33.7101 -8.06747 47.7017
RightForeArm  65.6741 -4.75421 -0.706429
RightHand  0.171822 -6.69098 -16.7453
LeftUpLeg  4.97823 4.59192 0.75002
LeftLeg  13.015 10.1303 4.46344
LeftFoot  -19.3912 -0.545082 -9.37928
LeftToes  -7.12384e-010 -7.51861e-011 -8.34901e-011
43
root  -79.2074 36.9767 102.687 10.9487 82.9321 3.44704
RightUpLeg  -25.3257 -4.22934 -6.90165
RightLeg  0.569884 -10.7588 0.572409
RightFoot  -6.72545 -0.366561 7.94523
RightToes  -3.4386e-010 1.2921e-014 -6.02303e-014
Spine  -8.56568 -5.09093 -3.79707
Spine1  9.88783 -5.59251 2.21905
HEad  17.8016 8.44202 2.30837
LeftShoulder1  1.72387 -3.04597 -21.0021
LeftArm  -2.90989 -3.26855 -51.884
LeftForeArm  31.9199 1.72063 -12.2947
LeftHand  -0.0353186 4.93804 2.91349
RightShoulder  0.893357 -0.806046 29.6702
RightArm  -33.7615 -8.49514 47.9143
RightForeArm  65.8073 -4.75173 -0.692327
RightHand  0.183206 -6.77386 -16.713
LeftUpLeg  6.0553 4.76415 1.79125
LeftLeg  13.9413 9.32665 4.43593
LeftFoot  -18.9156 -0.681368 -11.9658
LeftToes  -7.12384e-010 -7.51861e-011 -8.34901e-011
44
root  -78.2767 37.1115 103.275 5.29216 82.9576 -2.20025
RightUpLeg  -24.4526 -3.00134 -5.6247
RightLeg  0.953424 -11.4016 -0.0258369
RightFoot  -1.41847 -0.650885 7.37562
RightToes  -3.4386e-010 1.2921e-014 -6.02303e-014
Spine  -8.25805 -4.91174 -2.36123
Spine1  10.0418 -5.77533 2.73238
HEad  18.4658 8.66682 1.40267
LeftShoulder1  1.70965 -2.93655 -21.2664
LeftArm  -3.04997 -3.66866 -51.4005
LeftForeArm  31.8234 1.48785 -12.1892
LeftHand  -0.0369756 4.86855 2.98884
RightShoulder  0.821263 -1.00715 29.635
RightArm  -33.9816 -8.96988 48.0523
RightForeArm  66.1807 -4.72398 -0.773695
RightHand  0.186786 -6.80657 -16.6343
LeftUpLeg  7.46153 4.32219 3.4771
LeftLeg  14.1156 9.39225 4.47014
LeftFoot  -16.7805 -0.595797 -14.5842
LeftToes  -7.12384e-010 -7.51861e-011 -8.34901e-011
45
root  -77.1883 37.2249 103.919 -0.0894684 82.8449 -7.57634
RightUpLeg  -24.0529 -2.94357 -4.63977
RightLeg  3.21589 -10.4056 0.129725
RightFoot  1.26108 -1.03385 9.42069
RightToes  -3.4386e-010 1.2921e-014 -6.02303e-014
Spine  -8.57739 -4.75796 -1.00057
Spine1  10.4367 -5.98065 3.3481
HEad  19.4407 8.97891 0.524982
LeftShoulder1  1.70494 -2.88652 -21.4211
LeftArm  -3.55005 -3.35415 -51.4049
LeftForeArm  31.5766 1.61685 -12.0042
LeftHand  -0.0374585 4.85939 3.11802
RightShoulder  0.835139 -0.954907 29.4311
RightArm  -33.7157 -9.3378 47.7331
RightForeArm  66.1627 -4.75461 -0.599308
RightHand  0.19286 -6.8474 -16.6552
LeftUpLeg  8.41293 2.92805 4.94512
LeftLeg  15.6053 10.785 4.804
LeftFoot  -14.0999 -0.332426 -17.1836
LeftToes  -7.12384e-010 -7.51861e-011 -8.34901e-011
46
root  -76.0809 37.3068 104.632 -6.06843 82.004 -13.4709
RightUpLeg  -23.5161 -2.1778 -3.04545
RightLeg  5.62034 -9.87014 -0.192937
RightFoot  2.14144 -1.31873 11.2471
RightToes  -3.4386e-010 1.2921e-014 -6.02303e-014
Spine  -8.83033 -4.38734 0.652306
Spine1  10.7569 -5.801 3.55898
HEad  20.2473 9.40379 -0.133877
LeftShoulder1  1.71528 -3.01525 -20.9977
LeftArm  -4.44589 -2.14043 -51.8984
LeftForeArm  31.1737 1.52379 -11.6939
LeftHand  -0.0385104 5.12202 3.47054
RightShoulder  0.831673 -0.977149 29.6252
RightArm  -33.4614 -8.85764 47.1338
RightForeArm  66.4526 -4.7534 -0.543794
RightHand  0.199946 -6.89838 -16.6454
LeftUpLeg  8.41628 1.68851 6.84062
LeftLeg  19.3121 12.6573 5.27098
LeftFoot  -10.7368 0.168077 -19.5772
LeftToes  -7.12384e-010 -7.51861e-011 -8.34901e-011
47
root  -74.9981 37.4044 105.345 -9.26488 80.8182 -16.7704
RightUpLeg  -22.6455 -2.00529 -1.57693
RightLeg  6.9102 -9.01291 0.394169
RightFoot  2.84161 -1.44293 11.7179
RightToes  -3.4386e-010 1.2921e-014 -6.02303e-014
Spine  -8.9044 -4.17085 1.85578
Spine1  10.489 -5.66759 3.80018
HEad  21.344 10.312 -0.321594
LeftShoulder1  1.66347 -2.86692 -20.7969
LeftArm  -5.64308 -0.110856 -52.0858
LeftForeArm  31.4204 0.946163 -11.2579
LeftHand  -0.0406735 4.91213 3.22081
RightShoulder  0.968986 -0.590026 29.6337
RightArm  -32.8414 -7.60182 46.5261
RightForeArm  66.8619 -4.77179 -0.347774
RightHand  0.227557 -7.08089 -16.7535
LeftUpLeg  6.844 1.35748 8.21286
LeftLeg  25.2586 13.9029 7.3776
LeftFoot  -5.71253 1.08739 -21.2113
LeftToes  -7.12384e-010 -7.51861e-011 -8.34901e-011
48
root  -74.0147 37.4952 106.026 -11.1289 80.2595 -18.6652
RightUpLeg  -22.109 -1.50073 -0.253638
RightLeg  8.96316 -8.53062 0.304571
RightFoot  2.30118 -1.16493 9.84781
RightToes  -3.4386e-010 1.2921e-014 -6.02303e-014
Spine  -8.74845 -4.24139 2.47451
Spine1  10.463 -5.77654 4.24492
HEad  22.1667 11.2151 0.109528
LeftShoulder1  1.66524 -2.99325 -20.2489
LeftArm  -5.8316 1.51622 -52.2846
LeftForeArm  30.6656 0.831927 -11.2602
LeftHand  -0.0400838 4.79545 3.2752
RightShoulder  0.95959 -0.624047 29.7358
RightArm  -32.3911 -5.45346 46.5083
RightForeArm  67.892 -4.74314 -0.289024
RightHand  0.258539 -7.29892 -16.7455
LeftUpLeg  3.22205 1.47223 9.22535
LeftLeg  33.7555 14.2408 10.3758
LeftFoot  0.713082 1.95403 -18.4122
LeftToes  -7.12384e-010 -7.51861e-011 -8.34901e-011
49
root  -73.1212 37.5064 106.596 -12.0453 79.5244 -19.2152
RightUpLeg  -21.4185 -1.64581 0.906221
RightLeg  11.3357 -7.48037 0.47297
RightFoot  0.754033 -0.803665 7.623
RightToes  -3.4386e-010 1.2921e-014 -6.02303e-014
Spine  -7.89612 -4.19352 3.30776
Spine1  10.3784 -5.6414 4.45148
HEad  22.3039 11.3469 0.518964
LeftShoulder1  1.68089 -3.03586 -20.3233
LeftArm  -6.36803 2.75054 -52.21
LeftForeArm  31.1926 0.720577 -11.0865
LeftHand  -0.0412316 4.79516 3.28453
RightShoulder  1.01413 -0.450298 29.477
RightArm  -31.8183 -2.93576 46.9216
RightForeArm  68.7583 -4.73523 -0.14266
RightHand  0.273898 -7.38346 -16.9204
LeftUpLeg  -1.16773 2.52718 9.64606
LeftLeg  42.4222 12.9628 12.7567
LeftFoot  7.12392 1.09902 -7.02306
LeftToes  -7.12384e-010 -7.51861e-011 -8.34901e-011
50
root  -72.2284 37.5479 107.135 -12.1845 78.6438 -19.1321
RightUpLeg  -20.4011 -1.3049 2.0243
RightLeg  12.8525 -6.74883 0.230071
RightFoot  -0.801124 -0.58179 6.24109
RightToes  -3.4386e-010 1.2921e-014 -6.02303e-014
Spine  -7.50156 -4.01405 4.36149
Spine1  10.4616 -5.25146 3.91228
HEad  22.4532 11.5816 0.867042
LeftShoulder1  1.64985 -2.88048 -20.4982
LeftArm  -6.24144 3.20416 -52.0355
LeftForeArm  31.2353 1.47313 -11.1854
LeftHand  -0.0420756 4.83644 3.33261
RightShoulder  1.10458 -0.173404 29.2405
RightArm  -30.8419 -0.0556988 47.546
RightForeArm  69.3393 -4.77807 0.238578
RightHand  0.283922 -7.398 -17.3382
LeftUpLeg  -5.18666 2.7006 9.64487
LeftLeg  48.8684 9.66324 12.0619
LeftFoot  5.37076 0.939183 -6.61248
LeftToes  -7.12384e-010 -7.51861e-011 -8.34901e-011
51
root  -71.3296 37.6029 107.635 -10.3853 77.715 -16.9569
RightUpLeg  -19.037 -1.56393 2.63222
RightLeg  14.0192 -5.37389 0.337623
RightFoot  -2.62264 -0.413915 5.19055
RightToes  -3.4386e-010 1.2921e-014 -6.02303e-014
Spine  -7.04088 -3.60145 5.085
Spine1  10.3816 -4.51678 2.98866
HEad  22.8136 11.2485 1.48373
LeftShoulder1  1.63573 -2.86732 -20.3141
LeftArm  -6.64306 4.13566 -52.1958
LeftForeArm  31.5978 1.6528 -11.06
LeftHand  -0.0448227 4.9356 3.25424
RightShoulder  1.14754 -0.0627443 29.3746
RightArm  -29.1013 2.9887 47.8214
RightForeArm  69.7313 -4.90657 1.08271
RightHand  0.321635 -7.59686 -17.7358
LeftUpLeg  -8.93978 2.46239 8.69588
LeftLeg  52.8164 6.17028 9.12145
LeftFoot  0.915376 0.676783 -6.3521
LeftToes  -7.12384e-010 -7.51861e-011 -8.34901e-011
